<svg width="18" height="18" viewBox="0 0 18 18" fill="none" xmlns="http://www.w3.org/2000/svg">
<path d="M9.225 17.5219C9.16875 17.5219 9.14062 17.5219 9.08437 17.5219C7.79062 17.5219 6.38438 16.9875 5.5125 16.1719C4.58438 15.3 4.07812 14.1187 4.07812 12.9094V4.19062C4.07812 2.98124 4.66875 1.88437 5.70937 1.18124C6.72187 0.478119 7.9875 0.309369 9.16875 0.731244L9.225 0.759369C9.36562 0.815619 9.53438 0.843744 9.70312 0.956244C10.9969 1.63124 11.7844 2.84062 11.7844 4.21874V11.6719C11.7844 12.4312 11.5312 13.1344 11.0531 13.6969C10.9688 13.8094 10.9125 13.8656 10.8562 13.8937C10.3219 14.3719 9.70312 14.625 9 14.625C8.2125 14.625 7.45313 14.2594 6.94688 13.6687C6.46875 13.1062 6.1875 12.375 6.1875 11.6156V5.39999C6.1875 5.06249 6.46875 4.75312 6.83437 4.75312C7.2 4.75312 7.48125 5.03437 7.48125 5.39999V11.6437C7.48125 12.0937 7.65 12.5437 7.93125 12.8812C8.18438 13.1906 8.60625 13.3875 9 13.3875C9.36562 13.3875 9.675 13.2469 9.95625 12.9937C9.98438 12.9656 10.0125 12.9375 10.0687 12.8812C10.35 12.5437 10.5188 12.1219 10.5188 11.6719V4.19062C10.5188 3.29062 10.0125 2.50312 9.1125 2.05312L9.08437 2.02499C9.02812 1.99687 8.97188 1.96874 8.85938 1.94062L8.775 1.91249C7.95938 1.63124 7.11562 1.74374 6.4125 2.22187C5.70937 2.67187 5.34375 3.37499 5.34375 4.16249V12.8812C5.34375 13.725 5.7375 14.5969 6.38438 15.2156C7.03125 15.8062 8.12813 16.2281 9.1125 16.2281C10.0688 16.2562 10.9688 15.8906 11.6719 15.2437C12.3469 14.5969 12.7125 13.7531 12.6844 12.8812V6.10312C12.6844 5.76562 12.9656 5.45624 13.3313 5.45624C13.6969 5.45624 13.9781 5.73749 13.9781 6.10312V12.8812C14.0063 14.0906 13.5 15.2719 12.5719 16.1719C11.6438 17.0156 10.4344 17.5219 9.225 17.5219Z" fill="#637381"/>
</svg>
