<svg width="16" height="16" viewBox="0 0 16 16" fill="none" xmlns="http://www.w3.org/2000/svg">
<path d="M2.41432 5.036L2.41431 5.03601L2.41712 5.03876L7.76712 10.2638L8.00114 10.4923L8.23406 10.2627L13.5841 4.98765L13.5841 4.98766L13.5857 4.986C13.6806 4.89117 13.8195 4.89117 13.9143 4.986C14.0089 5.08055 14.0091 5.21897 13.9151 5.31378C13.9149 5.31405 13.9146 5.31432 13.9143 5.31459L8.1664 10.9625L8.16639 10.9625L8.16432 10.9646C8.06801 11.0609 8.02315 11.067 8.00002 11.067C7.9411 11.067 7.89005 11.0525 7.82027 10.9994L2.0849 5.36376C1.9909 5.26895 1.99118 5.13054 2.08573 5.036C2.18055 4.94117 2.3195 4.94117 2.41432 5.036Z" fill="#637381" stroke="#637381" stroke-width="0.666667"/>
</svg>
