<svg width="18" height="18" viewBox="0 0 18 18" fill="none" xmlns="http://www.w3.org/2000/svg">
<g clip-path="url(#clip0_116_8120)">
<path d="M13.022 9.92813H4.97822C4.78134 9.92813 4.58447 10.0125 4.47197 10.1813C4.35947 10.35 4.30322 10.5469 4.35947 10.7438C4.95009 12.825 6.86259 14.2875 9.00009 14.2875C11.1938 14.2875 13.0501 12.8813 13.6407 10.7438C13.697 10.5469 13.6688 10.35 13.5282 10.1813C13.4157 10.0125 13.2188 9.92813 13.022 9.92813ZM9.00009 12.9938C7.70634 12.9938 6.55322 12.2906 5.90634 11.1938H12.0938C11.4751 12.2906 10.322 12.9938 9.00009 12.9938Z" fill="#637381"/>
<path d="M9.0001 0.225006C4.1626 0.225006 0.225098 4.16251 0.225098 9.00001C0.225098 13.8375 4.1626 17.8031 9.02822 17.8031C13.8938 17.8031 17.8313 13.8656 17.8313 9.00001C17.8313 4.13438 13.8376 0.225006 9.0001 0.225006ZM9.0001 16.5375C4.8376 16.5375 1.4626 13.1625 1.4626 9.00001C1.4626 4.83751 4.86572 1.49063 9.0001 1.49063C13.1345 1.49063 16.5376 4.86563 16.5376 9.02813C16.5376 13.1906 13.1626 16.5375 9.0001 16.5375Z" fill="#637381"/>
<path d="M5.625 7.53751C6.24632 7.53751 6.75 7.03383 6.75 6.41251C6.75 5.79119 6.24632 5.28751 5.625 5.28751C5.00368 5.28751 4.5 5.79119 4.5 6.41251C4.5 7.03383 5.00368 7.53751 5.625 7.53751Z" fill="#637381"/>
<path d="M12.375 7.53751C12.9963 7.53751 13.5 7.03383 13.5 6.41251C13.5 5.79119 12.9963 5.28751 12.375 5.28751C11.7537 5.28751 11.25 5.79119 11.25 6.41251C11.25 7.03383 11.7537 7.53751 12.375 7.53751Z" fill="#637381"/>
</g>
<defs>
<clipPath id="clip0_116_8120">
<rect width="18" height="18" fill="white"/>
</clipPath>
</defs>
</svg>
