<svg width="22" height="22" viewBox="0 0 22 22" fill="none" xmlns="http://www.w3.org/2000/svg">
<path d="M4.58333 12.8333C5.59586 12.8333 6.41667 12.0125 6.41667 11C6.41667 9.98747 5.59586 9.16666 4.58333 9.16666C3.57081 9.16666 2.75 9.98747 2.75 11C2.75 12.0125 3.57081 12.8333 4.58333 12.8333Z" fill="#637381"/>
<path d="M10.9998 12.8333C12.0124 12.8333 12.8332 12.0125 12.8332 11C12.8332 9.98747 12.0124 9.16666 10.9998 9.16666C9.98732 9.16666 9.1665 9.98747 9.1665 11C9.1665 12.0125 9.98732 12.8333 10.9998 12.8333Z" fill="#637381"/>
<path d="M17.4168 12.8333C18.4294 12.8333 19.2502 12.0125 19.2502 11C19.2502 9.98747 18.4294 9.16666 17.4168 9.16666C16.4043 9.16666 15.5835 9.98747 15.5835 11C15.5835 12.0125 16.4043 12.8333 17.4168 12.8333Z" fill="#637381"/>
</svg>
